<svg xmlns="http://www.w3.org/2000/svg" version="1.1" xmlns:xlink="http://www.w3.org/1999/xlink" xmlns:svgjs="http://svgjs.dev/svgjs" width="100%" height="100%" viewBox="0 0 1000 600"><rect width="1000" height="600" x="0" y="0" fill="#f9f4ef"/><g><rect width="333.3333333333333" height="333.3333333333333" rx="13.333333333333334" ry="13.333333333333334" y="205.26262407766635" fill="#8c7851" transform="matrix(0.6829095473745317,0,0,0.6829095473745316,0,46.005973123409746)" x="183.0404815673828"/><path d="M310.7921791059475 446.9292751802922L310.7921791059475 446.9292751802922Q296.14304124577063 446.9292751802922 289.2538487905476 441.0388875791721Q282.39026671619894 435.1228895971776 282.2109940500779 421.4725565911037L282.2109940500779 421.4725565911037Q282.03172138395684 407.92466510852745 281.92927986045913 395.7085134314219Q281.8524487178358 383.4923617543163 281.8524487178358 371.78841769469943Q281.8524487178358 360.0844736350826 281.92927986045913 347.9195427197259Q282.03172138395684 335.7290014234947 282.2109940500779 322.18110994091853L282.2109940500779 322.18110994091853Q282.39026671619894 308.81249112446335 289.2538487905476 302.87088276159443Q296.14304124577063 296.92927439872545 310.7921791059475 296.92927439872545L310.7921791059475 296.92927439872545Q325.4413169661244 296.92927439872545 332.356119802222 302.92210352334325Q339.27092263831946 308.9149326479611 339.834351017557 322.18110994091853L339.834351017557 322.18110994091853Q340.0136236836781 326.9702511644379 340.06484444542696 331.3496262939663Q340.1160652071758 335.7290014234947 340.0136236836781 340.0827661721487Q339.93679254105473 344.41092053992827 339.655078351436 349.3025032869454L339.655078351436 349.3025032869454L325.0827716338824 349.3025032869454Q325.2620443000034 344.3084790164305 325.3132650617523 339.87788312515323Q325.3644858235011 335.47289761475037 325.3644858235011 331.0423017234731Q325.3644858235011 326.6117058321958 325.1852131573801 321.72012308517867L325.1852131573801 321.72012308517867Q324.9034989677613 314.7284891064579 321.67659097758246 312.0906198763911Q318.44968298740366 309.45275064632426 310.7921791059475 309.45275064632426L310.7921791059475 309.45275064632426Q303.31394789061244 309.45275064632426 300.1382606621825 312.0906198763911Q296.96257343375254 314.7284891064579 296.7833007676315 321.72012308517867L296.7833007676315 321.72012308517867Q296.50158657801273 336.18998827923457 296.3223139118917 348.32930881371686Q296.14304124577063 360.4430189673247 296.14304124577063 371.8396384564483Q296.14304124577063 383.2106475646975 296.3223139118917 395.3499680991798Q296.50158657801273 407.46367825278764 296.7833007676315 422.03598497034125L296.7833007676315 422.03598497034125Q296.96257343375254 429.0532293299365 300.1894814239314 431.71670894087777Q303.4163894141102 434.380188551819 310.7921791059475 434.380188551819L310.7921791059475 434.380188551819Q318.9106698431435 434.380188551819 322.2656297376945 431.71670894087777Q325.64620001311994 429.0532293299365 325.9023038218643 422.03598497034125L325.9023038218643 422.03598497034125Q326.1071868688598 417.784661745185 326.1071868688598 413.6870008052754Q326.1071868688598 409.58933986536573 326.00474534536204 404.4672636904787Q325.9023038218643 399.3451875155917 325.72303115574323 392.3535535368709L325.72303115574323 392.3535535368709L340.3977793967946 392.3535535368709Q340.7563247290367 401.18913493855104 340.80754549078557 407.97588587027633Q340.85876625253445 414.7626368020017 340.57705206291564 421.4725565911037L340.57705206291564 421.4725565911037Q340.0136236836781 435.1228895971776 333.04760008583173 441.0388875791721Q326.1071868688598 446.9292751802922 310.7921791059475 446.9292751802922ZM374.8693520537844 445.54631461307275L360.22021419360743 445.54631461307275L360.22021419360743 298.03052077632617L387.95625668062075 298.03052077632617Q401.7858623528157 298.03052077632617 408.06040566705235 303.56236304520417Q414.33494898128896 309.09420531408216 414.693494313531 321.8993957512997L414.693494313531 321.8993957512997Q415.0776500266476 330.5813148677333 415.15448116927087 337.77783189344956Q415.2569226927686 344.94873853829137 415.15448116927087 351.55621680389567Q415.0776500266476 358.1380846886255 414.693494313531 365.3346017143418L414.693494313531 365.3346017143418Q414.33494898128896 373.9140793072776 411.4153655616033 379.1129866247879Q408.52139252279215 384.3375043231727 402.52856339817436 386.71926974449514L402.52856339817436 386.71926974449514L417.5618569714678 445.54631461307275L402.17001806593225 445.54631461307275L388.59651620248155 389.12664554669203L374.8693520537844 389.12664554669203L374.8693520537844 445.54631461307275ZM374.8693520537844 311.21986692666025L374.8693520537844 375.93729939635796L387.8794255379974 375.93729939635796Q394.5125141844761 375.93729939635796 397.1759937954174 373.68358587940764Q399.86508378723306 371.4298723624574 400.1211875959774 365.8980300935794L400.1211875959774 365.8980300935794Q400.4029017855962 357.49782516676464 400.505343309094 350.53180156891824Q400.58217445171726 343.5657779710719 400.5565640708428 336.62536475409996Q400.505343309094 329.6593411562536 400.1211875959774 321.36157775293657L400.1211875959774 321.36157775293657Q399.86508378723306 315.72729396056087 397.1759937954174 313.47358044361056Q394.5125141844761 311.21986692666025 387.95625668062075 311.21986692666025L387.95625668062075 311.21986692666025L374.8693520537844 311.21986692666025Z " fill="#fffffe" transform="matrix(0.6829095473745317,0,0,0.6829095473745316,0,46.005973123409746)"/><path d="M623.1090520555351 418.22569861953633L623.1090520555351 418.22569861953633Q611.2631319066339 418.22569861953633 605.6922358925528 413.46247897924394Q600.1420495290815 408.67854968834155 599.9970819748119 397.64030591322904L599.9970819748119 397.64030591322904Q599.8521144205421 386.6849007405565 599.7692758181022 376.8063973996022Q599.7071468662723 366.92789405864784 599.7071468662723 357.46358372989295Q599.7071468662723 347.99927340113794 599.7692758181022 338.1621893614036Q599.8521144205421 328.30439567105924 599.9970819748119 317.3489904983867L599.9970819748119 317.3489904983867Q600.1420495290815 306.53855287998385 605.6922358925528 301.73391393847146Q611.2631319066339 296.9292749969591 623.1090520555351 296.9292749969591L623.1090520555351 296.9292749969591Q634.9549722044362 296.9292749969591 640.5465778691274 301.7753332396914Q646.1381835338185 306.62139148242375 646.5937958472377 317.3489904983867L646.5937958472377 317.3489904983867Q646.7387634015075 321.2216951624505 646.7801827027274 324.7630454167549Q646.8216020039474 328.30439567105924 646.7387634015075 331.82503627475364Q646.6766344496776 335.3249672278381 646.4488282929681 339.2805104943418L646.4488282929681 339.2805104943418L634.6650370958968 339.2805104943418Q634.8100046501665 335.2421286253982 634.8514239513864 331.6593590698739Q634.8928432526063 328.09729916495957 634.8928432526063 324.5145296094353Q634.8928432526063 320.931760053911 634.7478756983367 316.9762167874072L634.7478756983367 316.9762167874072Q634.520069541627 311.32248217088625 631.9106535647711 309.1893881580596Q629.3012375879152 307.05629414523304 623.1090520555351 307.05629414523304L623.1090520555351 307.05629414523304Q617.0618340774247 307.05629414523304 614.4938374017888 309.1893881580596Q611.925840726153 311.32248217088625 611.7808731718831 316.9762167874072L611.7808731718831 316.9762167874072Q611.5530670151735 328.67716938203864 611.4080994609037 338.49354377116305Q611.2631319066339 348.2892085096775 611.2631319066339 357.50500303111284Q611.2631319066339 366.7000879019382 611.4080994609037 376.5164622910626Q611.5530670151735 386.3121270295771 611.7808731718831 398.09591822664834L611.7808731718831 398.09591822664834Q611.925840726153 403.7703624937793 614.5352567030087 405.9241661572159Q617.1446726798646 408.07796982065247 623.1090520555351 408.07796982065247L623.1090520555351 408.07796982065247Q629.6740112988947 408.07796982065247 632.3869755288003 405.9241661572159Q635.120649409316 403.7703624937793 635.3277459154157 398.09591822664834L635.3277459154157 398.09591822664834Q635.4934231202953 394.6581162253938 635.4934231202953 391.34457212779904Q635.4934231202953 388.03102803020437 635.4105845178556 383.88909790821094Q635.3277459154157 379.7471677862175 635.1827783611459 374.09343316969654L635.1827783611459 374.09343316969654L647.0494081606571 374.09343316969654Q647.3393432691967 381.2382626301351 647.3807625704166 386.72632004177643Q647.4221818716364 392.21437745341774 647.1943757149268 397.64030591322904L647.1943757149268 397.64030591322904Q646.7387634015075 408.67854968834155 641.1057384355965 413.46247897924394Q635.4934231202953 418.22569861953633 623.1090520555351 418.22569861953633ZM676.042919014611 309.74854872452875L660.3864231534758 309.74854872452875L660.3864231534758 297.8197899731877L676.042919014611 297.8197899731877L676.042919014611 309.74854872452875ZM674.179050459714 417.1073774865981L662.3331303108127 417.1073774865981L662.3331303108127 327.64168685154027L674.179050459714 327.64168685154027L674.179050459714 417.1073774865981ZM702.7997876026885 446.92927436495074L690.7260612970776 446.92927436495074L690.7260612970776 327.64168685154027L702.7997876026885 327.64168685154027L702.7997876026885 335.8427084930873L704.8914623142952 335.8427084930873Q707.4387493393211 331.1416178046248 710.628035533256 328.8428465869184Q713.8380313778009 326.5233657186021 719.9473783077412 326.5233657186021L719.9473783077412 326.5233657186021Q728.0034323950184 326.5233657186021 732.1039432157919 330.9138116479151Q736.2044540365654 335.3249672278381 736.5150987957148 345.38985742428207L736.5150987957148 345.38985742428207Q736.6600663499847 349.9252709078649 736.7636146030345 357.13222932013343Q736.8878725066943 364.318478081792 736.8878725066943 372.29169356662936Q736.8878725066943 380.28561870207665 736.7636146030345 387.47186746373524Q736.6600663499847 394.6581162253938 736.5150987957148 399.3592069138563L736.5150987957148 399.3592069138563Q736.2044540365654 409.36196815847046 731.8554274084723 413.7938333890034Q727.4856911297692 418.22569861953633 719.429637042492 418.22569861953633L719.429637042492 418.22569861953633Q714.35577264305 418.22569861953633 711.0008092442355 416.03047565487987Q707.6458458454207 413.83525269022334 704.8914623142952 408.82351724261133L704.8914623142952 408.82351724261133L702.7997876026885 408.82351724261133L702.7997876026885 446.92927436495074ZM715.4119648241584 409.1341620017608L715.4119648241584 409.1341620017608Q719.8852493559114 409.1341620017608 722.1218916217878 407.04248729015416Q724.3585338876643 404.95081257854747 724.503501441934 400.187592938255L724.503501441934 400.187592938255Q724.8762751529134 390.93037911559975 724.9798234059632 383.66129175150127Q725.104081309623 376.39220438740284 725.0626620084031 370.09647060197284Q725.0212427071832 363.80073681654284 724.8762751529134 357.5671319829427Q724.7313075986436 351.3542367999526 724.503501441934 344.27153629134386L724.503501441934 344.27153629134386Q724.3585338876643 339.6532842053212 722.4118267303273 337.60302879493446Q720.4858292236004 335.5527733845477 715.9297060894075 335.5527733845477L715.9297060894075 335.5527733845477Q711.1664864491152 335.5527733845477 707.8115230503005 337.7065770479843Q704.4565596514858 339.8603807114209 702.7997876026885 344.27153629134386L702.7997876026885 344.27153629134386L702.7997876026885 400.41539909496464Q704.6015272057556 405.261457337697 707.5837168935908 407.1874548444239Q710.5659065814261 409.1341620017608 715.4119648241584 409.1341620017608ZM763.7897086490415 417.1073774865981L751.7159823434307 417.1073774865981L751.7159823434307 297.8197899731877L763.7897086490415 297.8197899731877L763.7897086490415 335.8427084930873L766.2541570716277 335.8427084930873Q768.7807344460435 331.1416178046248 772.0735688930284 328.8428465869184Q775.3456936894032 326.5233657186021 781.3100730650737 326.5233657186021L781.3100730650737 326.5233657186021Q789.5939333090606 326.5233657186021 793.5494765755642 330.996650250355Q797.484310191458 335.4699347821079 797.484310191458 345.38985742428207L797.484310191458 345.38985742428207L797.6499873963377 417.1073774865981L785.7212286449967 417.1073774865981L785.5555514401169 344.49934244805354Q785.5555514401169 339.71541315715115 783.5467153309502 337.62373844554446Q781.5378792217833 335.5527733845477 776.9817560875905 335.5527733845477L776.9817560875905 335.5527733845477Q772.1356978448583 335.5527733845477 768.7807344460435 337.7065770479843Q765.425771047229 339.8603807114209 763.7897086490415 344.27153629134386L763.7897086490415 344.27153629134386L763.7897086490415 417.1073774865981ZM834.9894874461085 418.22569861953633L834.9894874461085 418.22569861953633Q823.205696249037 418.22569861953633 818.1111221989852 413.6074465335137Q812.9958384983233 408.989194447491 812.4780972330742 398.6964980943374L812.4780972330742 398.6964980943374Q812.3331296788043 393.3326985863559 812.2088717751446 386.64348143933654Q812.1053235220947 379.97497394292714 812.1053235220947 372.85085413309844Q812.1053235220947 365.74744397387974 812.1881621245346 358.87183997137066Q812.2502910763645 352.0169456194716 812.4780972330742 346.1975337980708L812.4780972330742 346.1975337980708Q812.9958384983233 335.6149023363776 818.256089753255 331.07948885279484Q823.5163410081866 326.5233657186021 834.8445198918387 326.5233657186021L834.8445198918387 326.5233657186021Q846.2555373779305 326.5233657186021 851.2465631749325 331.1416178046248Q856.2375889719345 335.7598698906474 856.6932012853539 345.67979253282164L856.6932012853539 345.67979253282164Q856.7553302371838 347.3986935334489 856.7967495384038 352.20333247496126Q856.8381688396237 357.00797141647365 856.7967495384038 363.096608695804Q856.7553302371838 369.1645363245243 856.5482337310841 374.6940130373855L856.5482337310841 374.6940130373855L824.1169208758757 374.6940130373855Q824.1169208758757 380.8654889191557 824.2204691289255 387.18193235519567Q824.3240173819753 393.4776661406257 824.4068559844152 399.9597867815454L824.4068559844152 399.9597867815454Q824.551823538685 405.0336511809873 827.0162719612711 406.95964868771426Q829.4807203838571 408.90635584505117 834.7616812893988 408.90635584505117L834.7616812893988 408.90635584505117Q840.0633518455503 408.90635584505117 842.3414134126467 406.95964868771426Q844.6194749797431 405.0336511809873 844.8265714858428 399.9597867815454L844.8265714858428 399.9597867815454Q844.9922486907225 397.72314451566893 844.9508293895026 393.8504398516051Q844.9094100882826 389.9777351875412 844.681603931573 385.7943857643279L844.681603931573 385.7943857643279L856.5482337310841 385.7943857643279Q856.6932012853539 388.3209631387439 856.7553302371838 392.3179257064675Q856.8381688396237 396.31488827419116 856.6932012853539 398.6964980943374L856.6932012853539 398.6964980943374Q856.1754600201047 409.1341620017608 851.2879824761525 413.6695754853436Q846.4005049322003 418.22569861953633 834.9894874461085 418.22569861953633ZM824.1169208758757 365.581766769L824.1169208758757 365.581766769L844.9922486907225 365.581766769Q845.0543776425524 361.41912699639664 845.0957969437724 357.13222932013343Q845.1372162449923 352.8453316438703 845.0543776425524 349.44894894383566Q844.9922486907225 346.05256624380104 844.8265714858428 344.7064389541532L844.8265714858428 344.7064389541532Q844.5366363773032 339.6532842053212 842.1550265571569 337.6651577467644Q839.7734167370107 335.6977409388175 834.8445198918387 335.6977409388175L834.8445198918387 335.6977409388175Q829.1700756247077 335.6977409388175 826.8713044070013 337.934383204694Q824.551823538685 340.1710254705704 824.4068559844152 344.7064389541532L824.4068559844152 344.7064389541532Q824.3240173819753 349.7803033535951 824.2204691289255 355.04055460852675Q824.1169208758757 360.3008058634584 824.1169208758757 365.581766769ZM883.1601347648918 417.1073774865981L871.0035698568412 417.1073774865981L871.0035698568412 327.64168685154027L883.1601347648918 327.64168685154027L883.1601347648918 336.5054173126062L885.6867121393078 336.5054173126062Q887.0328394289558 331.45226256377424 890.2842545747205 329.3605878521676Q893.5149600698754 327.2689131405609 898.9615981802967 327.2689131405609L898.9615981802967 327.2689131405609Q900.3698544217744 327.2689131405609 901.7574010126422 327.41388069483065Q903.1449476035101 327.55884824910044 904.5532038449879 327.55884824910044L904.5532038449879 327.55884824910044L904.5532038449879 336.87819102358566L899.1065657345665 336.87819102358566Q892.3345099851073 336.87819102358566 888.4410956704335 339.0527043376322Q884.5683910063696 341.20650800106876 883.1601347648918 346.73598471392995L883.1601347648918 346.73598471392995L883.1601347648918 417.1073774865981ZM952.4132064046217 417.1073774865981L940.5672862557207 417.1073774865981L940.5672862557207 297.8197899731877L962.9958378663149 297.8197899731877Q974.1790491956972 297.8197899731877 979.2529135951391 302.2930745049406Q984.326777994581 306.7663590366935 984.6167131031206 317.121184341677L984.6167131031206 317.121184341677Q984.9273578622701 324.14175589845587 984.9894868141 329.96116771985663Q985.0723254165399 335.7598698906474 984.9894868141 341.1029597480189Q984.9273578622701 346.42533995478044 984.6167131031206 352.2447517761812L984.6167131031206 352.2447517761812Q984.326777994581 359.1824847305202 981.9865874756548 363.3865438043435Q979.6256873061186 367.6113125287768 974.7796290633863 369.5373100355037L974.7796290633863 369.5373100355037L986.9361939714369 417.1073774865981L974.4896939548468 417.1073774865981L963.534288782174 371.48401719284067L952.4132064046217 371.48401719284067L952.4132064046217 417.1073774865981ZM952.4132064046217 308.48526003732076L952.4132064046217 360.81854712870756L962.933708914485 360.81854712870756Q968.2975084224666 360.81854712870756 970.4513120859032 358.9960978750305Q972.6258253999496 357.1736486213534 972.8536315566593 352.7003640896005L972.8536315566593 352.7003640896005Q973.0607280627589 345.90759868953126 973.1435666651988 340.2745737236202Q973.2264052676388 334.6415487577092 973.1849859664188 329.0292334424081Q973.1435666651988 323.39620847649707 972.8536315566593 316.6862816788677L972.8536315566593 316.6862816788677Q972.6258253999496 312.13015854467494 970.4513120859032 310.3077092909979Q968.2975084224666 308.48526003732076 962.9958378663149 308.48526003732076L962.9958378663149 308.48526003732076L952.4132064046217 308.48526003732076ZM1020.5686665620234 418.22569861953633L1020.5686665620234 418.22569861953633Q1008.7848753649522 418.22569861953633 1003.6695916642904 413.6074465335137Q998.5750176142384 408.989194447491 998.0365666983793 398.6964980943374L998.0365666983793 398.6964980943374Q997.8915991441096 393.3326985863559 997.7880508910597 386.64348143933654Q997.6637929873999 379.97497394292714 997.6637929873999 372.85085413309844Q997.6637929873999 365.74744397387974 997.7466315898397 358.87183997137066Q997.8294701922797 352.0169456194716 998.0365666983793 346.1975337980708L998.0365666983793 346.1975337980708Q998.5750176142384 335.6149023363776 1003.81455921856 331.07948885279484Q1009.0748104734918 326.5233657186021 1020.4029893571438 326.5233657186021L1020.4029893571438 326.5233657186021Q1031.8140068432358 326.5233657186021 1036.8050326402376 331.1416178046248Q1041.8167680878496 335.7598698906474 1042.2516707506588 345.67979253282164L1042.2516707506588 345.67979253282164Q1042.3345093530988 347.3986935334489 1042.3759286543188 352.20333247496126Q1042.3966383049287 357.00797141647365 1042.3759286543188 363.096608695804Q1042.3345093530988 369.1645363245243 1042.1067031963894 374.6940130373855L1042.1067031963894 374.6940130373855L1009.6753903411808 374.6940130373855Q1009.6753903411808 380.8654889191557 1009.7789385942307 387.18193235519567Q1009.9031964978903 393.4776661406257 1009.9653254497204 399.9597867815454L1009.9653254497204 399.9597867815454Q1010.1310026546 405.0336511809873 1012.5747414265762 406.95964868771426Q1015.0391898491622 408.90635584505117 1020.3408604053138 408.90635584505117L1020.3408604053138 408.90635584505117Q1025.6218213108555 408.90635584505117 1027.8998828779518 406.95964868771426Q1030.177944445048 405.0336511809873 1030.405750601758 399.9597867815454L1030.405750601758 399.9597867815454Q1030.5507181560276 397.72314451566893 1030.5092988548076 393.8504398516051Q1030.4678795535879 389.9777351875412 1030.260783047488 385.7943857643279L1030.260783047488 385.7943857643279L1042.1067031963894 385.7943857643279Q1042.2516707506588 388.3209631387439 1042.3345093530988 392.3179257064675Q1042.3966383049287 396.31488827419116 1042.2516707506588 398.6964980943374L1042.2516707506588 398.6964980943374Q1041.7339294854098 409.1341620017608 1036.8464519414576 413.6695754853436Q1031.9589743975052 418.22569861953633 1020.5686665620234 418.22569861953633ZM1009.6753903411808 365.581766769L1009.6753903411808 365.581766769L1030.5507181560276 365.581766769Q1030.6335567584674 361.41912699639664 1030.6542664090775 357.13222932013343Q1030.6956857102973 352.8453316438703 1030.6335567584674 349.44894894383566Q1030.5507181560276 346.05256624380104 1030.405750601758 344.7064389541532L1030.405750601758 344.7064389541532Q1030.0951058426085 339.6532842053212 1027.713496022462 337.6651577467644Q1025.331886202316 335.6977409388175 1020.4029893571438 335.6977409388175L1020.4029893571438 335.6977409388175Q1014.7492547406226 335.6977409388175 1012.4297738723064 337.934383204694Q1010.1310026546 340.1710254705704 1009.9653254497204 344.7064389541532L1009.9653254497204 344.7064389541532Q1009.9031964978903 349.7803033535951 1009.7789385942307 355.04055460852675Q1009.6753903411808 360.3008058634584 1009.6753903411808 365.581766769ZM1074.8279511601372 418.22569861953633L1074.8279511601372 418.22569861953633Q1063.5826108789252 418.22569861953633 1059.0679070459523 413.6695754853436Q1054.5532032129795 409.1341620017608 1054.1183005501703 398.7586270461673L1054.1183005501703 398.7586270461673Q1054.0354619477303 395.40366364735263 1054.0768812489503 392.35934500768747Q1054.1183005501703 389.2943167174123 1054.26326810444 386.0221919210375L1054.26326810444 386.0221919210375L1065.0737057228428 386.0221919210375Q1064.845899566133 390.55760540462035 1064.8873188673529 393.99540740587486Q1064.928738168573 397.43320940712937 1064.928738168573 399.9597867815454L1064.928738168573 399.9597867815454Q1064.990867120403 405.0336511809873 1067.2689286874993 407.0010679889342Q1069.5469902545956 408.989194447491 1074.8279511601372 408.989194447491L1074.8279511601372 408.989194447491Q1080.5023954272683 408.989194447491 1082.9668438498543 407.0010679889342Q1085.4312922724403 405.0336511809873 1085.5762598267102 399.8769481791055L1085.5762598267102 399.8769481791055Q1085.63838877854 397.72314451566893 1085.63838877854 396.14921106931143Q1085.63838877854 394.59598727356394 1085.63838877854 393.1463117308662Q1085.63838877854 391.67592653755855 1085.5762598267102 389.8948965851014L1085.5762598267102 389.8948965851014Q1085.4312922724403 384.5932260289498 1084.0851649827923 382.10806795575377Q1082.7390376931448 379.60220023194773 1078.4935593181012 378.25607294229985L1078.4935593181012 378.25607294229985L1070.2925376765543 375.9573017245935Q1064.3902872527137 374.23840072396627 1060.8903562996293 371.67040404833034Q1057.3904253465448 369.1024073726944 1055.7957822495775 364.960477250701Q1054.1804295020002 360.81854712870756 1053.9526233452905 354.253587885348L1053.9526233452905 354.253587885348Q1053.8904943934604 351.5820429566623 1053.8904943934604 349.82172265481506Q1053.8904943934604 348.06140235296783 1053.9526233452905 346.13540484624093L1053.9526233452905 346.13540484624093Q1054.26326810444 335.6977409388175 1058.9850684435123 331.10019850340484Q1063.727578433195 326.5233657186021 1075.511369630266 326.5233657186021L1075.511369630266 326.5233657186021Q1086.6117423572086 326.5233657186021 1091.271413744451 330.95523094913506Q1095.9310851316936 335.387096179668 1096.303858842673 345.99043729197115L1096.303858842673 345.99043729197115Q1096.303858842673 347.5436610877187 1096.303858842673 351.6855912097121Q1096.303858842673 355.8275213317055 1096.0139237341336 358.49906626039126L1096.0139237341336 358.49906626039126L1084.9756799590211 358.49906626039126Q1085.1206475132908 356.11745644024506 1085.1206475132908 353.5080404633892Q1085.1206475132908 350.8986244865334 1085.1206475132908 348.5584339676071Q1085.1206475132908 346.1975337980708 1085.058518561461 344.56147139988343L1085.058518561461 344.56147139988343Q1084.9756799590211 339.57044560288136 1082.9254245486345 337.6651577467644Q1080.8751691382477 335.7598698906474 1075.511369630266 335.7598698906474L1075.511369630266 335.7598698906474Q1070.1475701222848 335.7598698906474 1068.014476109458 337.6651577467644Q1065.8813820966316 339.57044560288136 1065.7364145423617 344.64431000232327L1065.7364145423617 344.64431000232327Q1065.7364145423617 345.99043729197115 1065.6742855905318 348.2270795578476Q1065.5914469880918 350.46372182372403 1065.5914469880918 353.0731378005799L1065.5914469880918 353.0731378005799Q1065.7364145423617 358.35409870612153 1066.9375742777397 361.5640945506664Q1068.118024362508 364.7740903952113 1072.8191150509706 366.12021768485914L1072.8191150509706 366.12021768485914L1080.585234029708 368.129053794026Q1088.9312232255247 370.2828574574625 1092.8867664920285 375.0874963989749Q1096.8216001079222 379.91284499109724 1096.8216001079222 389.522122874122L1096.8216001079222 389.522122874122Q1096.8216001079222 392.21437745341774 1096.8216001079222 394.2646328638044Q1096.8216001079222 396.31488827419116 1096.6766325536523 399.0692718053168L1096.6766325536523 399.0692718053168Q1096.386697445113 409.27912955603057 1091.5820585036008 413.75241408778345Q1086.756709911478 418.22569861953633 1074.8279511601372 418.22569861953633ZM1126.581368034445 418.22569861953633L1126.581368034445 418.22569861953633Q1118.4424753447279 418.22569861953633 1114.1969969696847 413.75241408778345Q1109.9515185946414 409.27912955603057 1109.9515185946414 399.21423935958654L1109.9515185946414 399.21423935958654L1109.9515185946414 327.64168685154027L1121.9631159484225 327.64168685154027L1122.0252449002523 400.187592938255Q1122.0252449002523 404.95081257854747 1124.013371358809 407.04248729015416Q1125.980788166756 409.1341620017608 1130.4540726985088 409.1341620017608L1130.4540726985088 409.1341620017608Q1134.8445186278218 409.1341620017608 1138.510126785786 406.8146811334445Q1142.1550252931402 404.5159099157382 1143.7289587394978 400.41539909496464L1143.7289587394978 400.41539909496464L1143.7289587394978 327.64168685154027L1155.7198464426688 327.64168685154027L1155.7198464426688 417.1073774865981L1143.7289587394978 417.1073774865981L1143.7289587394978 408.82351724261133L1141.637284027891 408.82351724261133Q1139.0278680510353 413.6695754853436 1135.2587116400214 415.94763705244Q1131.4895552290072 418.22569861953633 1126.581368034445 418.22569861953633ZM1184.2163256819836 417.1073774865981L1172.3496958824721 417.1073774865981L1172.3496958824721 297.8197899731877L1184.2163256819836 297.8197899731877L1184.2163256819836 417.1073774865981ZM1223.647500443361 418.22569861953633L1223.647500443361 418.22569861953633Q1211.6359030895796 418.22569861953633 1206.7898448468475 413.75241408778345Q1201.9437866041153 409.27912955603057 1201.9437866041153 398.55153054006763L1201.9437866041153 398.55153054006763L1201.8816576522854 336.87819102358566L1194.8610860955064 336.87819102358566L1194.8610860955064 327.64168685154027L1202.2544313632648 327.64168685154027L1202.2544313632648 302.2930745049406L1214.1831901146056 302.2930745049406L1214.1831901146056 327.64168685154027L1229.694718421471 327.64168685154027L1229.694718421471 336.87819102358566L1213.8104164036263 336.87819102358566L1213.8725453554562 399.8769481791055Q1213.8725453554562 405.261457337697 1215.8606718140131 407.14603554320394Q1217.82808862196 409.05132339932095 1223.8753066000704 409.05132339932095L1223.8753066000704 409.05132339932095Q1226.111948865947 409.05132339932095 1227.7065919629144 408.9477751462711Q1229.3219447104916 408.82351724261133 1231.4757483739281 408.61642073651166L1231.4757483739281 408.61642073651166L1231.4757483739281 417.4801511975775Q1229.694718421471 417.7700863061171 1227.789430565354 417.9978924628267Q1225.884142709237 418.22569861953633 1223.647500443361 418.22569861953633ZM1259.2888091431141 418.22569861953633L1259.2888091431141 418.22569861953633Q1248.022759211292 418.22569861953633 1243.508055378319 413.6695754853436Q1239.0140611959564 409.1341620017608 1238.558448882537 398.7586270461673L1238.558448882537 398.7586270461673Q1238.475610280097 395.40366364735263 1238.5170295813168 392.35934500768747Q1238.558448882537 389.2943167174123 1238.703416436807 386.0221919210375L1238.703416436807 386.0221919210375L1249.5138540552093 386.0221919210375Q1249.2860478984999 390.55760540462035 1249.32746719972 393.99540740587486Q1249.3688865009399 397.43320940712937 1249.3688865009399 399.9597867815454L1249.3688865009399 399.9597867815454Q1249.4517251033799 405.0336511809873 1251.709077019866 407.0010679889342Q1253.9871385869624 408.989194447491 1259.2888091431141 408.989194447491L1259.2888091431141 408.989194447491Q1264.942543759635 408.989194447491 1267.406992182221 407.0010679889342Q1269.8714406048075 405.0336511809873 1270.016408159077 399.8769481791055L1270.016408159077 399.8769481791055Q1270.099246761517 397.72314451566893 1270.099246761517 396.14921106931143Q1270.099246761517 394.59598727356394 1270.099246761517 393.1463117308662Q1270.099246761517 391.67592653755855 1270.016408159077 389.8948965851014L1270.016408159077 389.8948965851014Q1269.8714406048075 384.5932260289498 1268.525313315159 382.10806795575377Q1267.1791860255116 379.60220023194773 1262.933707650468 378.25607294229985L1262.933707650468 378.25607294229985L1254.732686008921 375.9573017245935Q1248.8511452356906 374.23840072396627 1245.3512142826062 371.67040404833034Q1241.8305736789116 369.1024073726944 1240.2359305819446 364.960477250701Q1238.6412874849766 360.81854712870756 1238.4134813282672 354.253587885348L1238.4134813282672 354.253587885348Q1238.3306427258271 351.5820429566623 1238.3306427258271 349.82172265481506Q1238.3306427258271 348.06140235296783 1238.4134813282672 346.13540484624093L1238.4134813282672 346.13540484624093Q1238.703416436807 335.6977409388175 1243.4459264264892 331.10019850340484Q1248.1677267655618 326.5233657186021 1259.9515179626328 326.5233657186021L1259.9515179626328 326.5233657186021Q1271.072600340185 326.5233657186021 1275.7322717274278 330.95523094913506Q1280.3919431146705 335.387096179668 1280.7647168256499 345.99043729197115L1280.7647168256499 345.99043729197115Q1280.7647168256499 347.5436610877187 1280.7647168256499 351.6855912097121Q1280.7647168256499 355.8275213317055 1280.4540720665004 358.49906626039126L1280.4540720665004 358.49906626039126L1269.4158282913882 358.49906626039126Q1269.5815054962677 356.11745644024506 1269.5815054962677 353.5080404633892Q1269.5815054962677 350.8986244865334 1269.5815054962677 348.5584339676071Q1269.5815054962677 346.1975337980708 1269.4986668938277 344.56147139988343L1269.4986668938277 344.56147139988343Q1269.4158282913882 339.57044560288136 1267.3655728810013 337.6651577467644Q1265.3153174706144 335.7598698906474 1259.9515179626328 335.7598698906474L1259.9515179626328 335.7598698906474Q1254.5877184546516 335.7598698906474 1252.4546244418248 337.6651577467644Q1250.3422400796085 339.57044560288136 1250.1972725253386 344.64431000232327L1250.1972725253386 344.64431000232327Q1250.1972725253386 345.99043729197115 1250.1144339228986 348.2270795578476Q1250.0315953204586 350.46372182372403 1250.0315953204586 353.0731378005799L1250.0315953204586 353.0731378005799Q1250.1972725253386 358.35409870612153 1251.3777226101065 361.5640945506664Q1252.5788823454845 364.7740903952113 1257.279973033947 366.12021768485914L1257.279973033947 366.12021768485914L1265.025382362075 368.129053794026Q1273.3713715578915 370.2828574574625 1277.3269148243953 375.0874963989749Q1281.2824580908991 379.91284499109724 1281.2824580908991 389.522122874122L1281.2824580908991 389.522122874122Q1281.2824580908991 392.21437745341774 1281.2824580908991 394.2646328638044Q1281.2824580908991 396.31488827419116 1281.1374905366292 399.0692718053168L1281.1374905366292 399.0692718053168Q1280.8268457774798 409.27912955603057 1276.0222068359676 413.75241408778345Q1271.217567894455 418.22569861953633 1259.2888091431141 418.22569861953633Z " fill="#020826" transform="matrix(0.6829095473745317,0,0,0.6829095473745316,0,46.005973123409746)"/></g></svg>